<svg width="74" height="74" viewBox="0 0 74 74" fill="none" xmlns="http://www.w3.org/2000/svg">
<path d="M45.7228 19.4312C43.4473 19.3263 42.7627 19.3078 37 19.3078C31.2372 19.3078 30.5558 19.3294 28.2803 19.4312C22.4251 19.6994 19.6994 22.4713 19.4312 28.2803C19.3294 30.5558 19.3047 31.2372 19.3047 37C19.3047 42.7627 19.3294 43.4442 19.4312 45.7228C19.6994 51.5163 22.4127 54.3037 28.2803 54.5719C30.5527 54.6737 31.2372 54.6983 37 54.6983C42.7658 54.6983 43.4473 54.6767 45.7228 54.5719C51.578 54.3067 54.3006 51.5256 54.5719 45.7228C54.6737 43.4473 54.6952 42.7627 54.6952 37C54.6952 31.2372 54.6737 30.5558 54.5719 28.2803C54.3006 22.4744 51.5718 19.6994 45.7228 19.4312V19.4312ZM37 48.0846C30.8796 48.0846 25.9154 43.1235 25.9154 37C25.9154 30.8796 30.8796 25.9185 37 25.9185C43.1204 25.9185 48.0846 30.8796 48.0846 37C48.0846 43.1204 43.1204 48.0846 37 48.0846ZM48.5224 28.0707C47.0918 28.0707 45.9324 26.9113 45.9324 25.4807C45.9324 24.05 47.0918 22.8907 48.5224 22.8907C49.9531 22.8907 51.1124 24.05 51.1124 25.4807C51.1124 26.9082 49.9531 28.0707 48.5224 28.0707V28.0707ZM44.1934 37C44.1934 40.9744 40.9713 44.1934 37 44.1934C33.0287 44.1934 29.8066 40.9744 29.8066 37C29.8066 33.0256 33.0287 29.8066 37 29.8066C40.9713 29.8066 44.1934 33.0256 44.1934 37ZM37 0C16.5668 0 0 16.5668 0 37C0 57.4332 16.5668 74 37 74C57.4332 74 74 57.4332 74 37C74 16.5668 57.4332 0 37 0ZM58.4538 45.8985C58.0992 53.7456 53.7302 58.0931 45.9016 58.4538C43.5983 58.5587 42.8614 58.5833 37 58.5833C31.1386 58.5833 30.4048 58.5587 28.1015 58.4538C20.2575 58.0931 15.9069 53.7394 15.5462 45.8985C15.4413 43.5983 15.4167 42.8614 15.4167 37C15.4167 31.1386 15.4413 30.4048 15.5462 28.1015C15.9069 20.2575 20.2606 15.9069 28.1015 15.5493C30.4048 15.4413 31.1386 15.4167 37 15.4167C42.8614 15.4167 43.5983 15.4413 45.9016 15.5493C53.7487 15.91 58.1023 20.2729 58.4538 28.1015C58.5587 30.4048 58.5833 31.1386 58.5833 37C58.5833 42.8614 58.5587 43.5983 58.4538 45.8985Z" fill="#FFB16C"/>
</svg>
