<svg width="72" height="72" viewBox="0 0 72 72" fill="none" xmlns="http://www.w3.org/2000/svg">
<path d="M36 0C16.119 0 0 16.119 0 36C0 55.881 16.119 72 36 72C55.881 72 72 55.881 72 36C72 16.119 55.881 0 36 0ZM30 48H24V30H30V48ZM27 27.327C25.179 27.327 23.7 25.839 23.7 24C23.7 22.164 25.176 20.673 27 20.673C28.824 20.673 30.3 22.164 30.3 24C30.3 25.839 28.821 27.327 27 27.327ZM51 48H45.006V39.417C45.006 33.774 39 34.251 39 39.417V48H33V30H39V33.279C41.616 28.431 51 28.071 51 37.923V48Z" fill="#FFB16C"/>
</svg>
