<svg width="158" height="158" viewBox="0 0 158 158" fill="none" xmlns="http://www.w3.org/2000/svg">
<g clip-path="url(#clip0)">
<circle cx="79" cy="79" r="74" stroke="white" stroke-width="10"/>
<path d="M55.2987 104.91L43.4687 104V103.3L44.1687 103.16C45.9887 102.74 46.8987 101.573 46.8987 99.66V62.21C46.8987 61.23 46.7354 60.4833 46.4087 59.97C46.1287 59.4567 45.522 59.1067 44.5887 58.92L43.6087 58.64V57.94L56.0687 54.93L56.9087 55.56L56.6287 65.43V72.5C58.1687 71.4267 59.8487 70.6333 61.6687 70.12C63.4887 69.56 65.332 69.28 67.1987 69.28C69.8587 69.28 72.2154 69.91 74.2687 71.17C76.322 72.3833 77.932 74.2967 79.0987 76.91C80.312 79.4767 80.9187 82.79 80.9187 86.85C80.9187 90.91 80.242 94.2933 78.8887 97C77.582 99.66 75.8087 101.667 73.5687 103.02C71.3754 104.373 68.9487 105.05 66.2887 105.05C64.562 105.05 62.812 104.817 61.0387 104.35C59.312 103.883 57.772 103.23 56.4187 102.39L55.2987 104.91ZM62.7887 102.67C64.282 102.67 65.5887 102.203 66.7087 101.27C67.8287 100.337 68.7154 98.75 69.3687 96.51C70.022 94.2233 70.3487 91.0967 70.3487 87.13C70.3487 83.1633 70.0454 80.1067 69.4387 77.96C68.832 75.8133 67.9687 74.32 66.8487 73.48C65.7754 72.64 64.4687 72.22 62.9287 72.22C60.7354 72.22 58.7054 72.8267 56.8387 74.04V100.92C57.7254 101.48 58.6354 101.923 59.5687 102.25C60.502 102.53 61.5754 102.67 62.7887 102.67ZM83.8691 104V103.3L84.9191 102.95C86.5058 102.437 87.2991 101.293 87.2991 99.52V62.07C87.2991 61.1367 87.1124 60.4367 86.7391 59.97C86.3658 59.5033 85.7124 59.13 84.7791 58.85L83.8691 58.64V57.94L96.6791 54.93L97.5191 55.56L97.3091 65.36V99.52C97.3091 101.387 98.0791 102.553 99.6191 103.02L100.599 103.3V104H83.8691ZM109.839 104L97.3791 86.5L110.329 74.53C110.936 73.97 111.286 73.3867 111.379 72.78C111.519 72.1267 111.122 71.66 110.189 71.38L108.999 71.03V70.33H119.429V71.03L117.329 71.59C116.302 71.9167 115.462 72.3133 114.809 72.78C114.202 73.2 113.456 73.8067 112.569 74.6L104.729 81.95L117.259 99.38C118.006 100.407 118.706 101.2 119.359 101.76C120.012 102.32 120.852 102.787 121.879 103.16L122.159 103.3V104H109.839Z" fill="white"/>
</g>
<defs>
<clipPath id="clip0">
<rect width="158" height="158" fill="white"/>
</clipPath>
</defs>
</svg>
