<svg width="559" height="158" viewBox="0 0 559 158" fill="none" xmlns="http://www.w3.org/2000/svg">
<g clip-path="url(#clip0)">
<circle cx="79" cy="79" r="74" stroke="white" stroke-width="10"/>
<path d="M55.2987 104.91L43.4687 104V103.3L44.1687 103.16C45.9887 102.74 46.8987 101.573 46.8987 99.66V62.21C46.8987 61.23 46.7354 60.4833 46.4087 59.97C46.1287 59.4567 45.522 59.1067 44.5887 58.92L43.6087 58.64V57.94L56.0687 54.93L56.9087 55.56L56.6287 65.43V72.5C58.1687 71.4267 59.8487 70.6333 61.6687 70.12C63.4887 69.56 65.332 69.28 67.1987 69.28C69.8587 69.28 72.2154 69.91 74.2687 71.17C76.322 72.3833 77.932 74.2967 79.0987 76.91C80.312 79.4767 80.9187 82.79 80.9187 86.85C80.9187 90.91 80.242 94.2933 78.8887 97C77.582 99.66 75.8087 101.667 73.5687 103.02C71.3754 104.373 68.9487 105.05 66.2887 105.05C64.562 105.05 62.812 104.817 61.0387 104.35C59.312 103.883 57.772 103.23 56.4187 102.39L55.2987 104.91ZM62.7887 102.67C64.282 102.67 65.5887 102.203 66.7087 101.27C67.8287 100.337 68.7154 98.75 69.3687 96.51C70.022 94.2233 70.3487 91.0967 70.3487 87.13C70.3487 83.1633 70.0454 80.1067 69.4387 77.96C68.832 75.8133 67.9687 74.32 66.8487 73.48C65.7754 72.64 64.4687 72.22 62.9287 72.22C60.7354 72.22 58.7054 72.8267 56.8387 74.04V100.92C57.7254 101.48 58.6354 101.923 59.5687 102.25C60.502 102.53 61.5754 102.67 62.7887 102.67ZM83.8691 104V103.3L84.9191 102.95C86.5058 102.437 87.2991 101.293 87.2991 99.52V62.07C87.2991 61.1367 87.1124 60.4367 86.7391 59.97C86.3658 59.5033 85.7124 59.13 84.7791 58.85L83.8691 58.64V57.94L96.6791 54.93L97.5191 55.56L97.3091 65.36V99.52C97.3091 101.387 98.0791 102.553 99.6191 103.02L100.599 103.3V104H83.8691ZM109.839 104L97.3791 86.5L110.329 74.53C110.936 73.97 111.286 73.3867 111.379 72.78C111.519 72.1267 111.122 71.66 110.189 71.38L108.999 71.03V70.33H119.429V71.03L117.329 71.59C116.302 71.9167 115.462 72.3133 114.809 72.78C114.202 73.2 113.456 73.8067 112.569 74.6L104.729 81.95L117.259 99.38C118.006 100.407 118.706 101.2 119.359 101.76C120.012 102.32 120.852 102.787 121.879 103.16L122.159 103.3V104H109.839Z" fill="white"/>
<path d="M206.888 79.4C209.328 79.92 211.288 81.14 212.768 83.06C214.248 84.94 214.988 87.1 214.988 89.54C214.988 93.06 213.748 95.86 211.268 97.94C208.828 99.98 205.408 101 201.008 101H181.388V58.88H200.348C204.628 58.88 207.968 59.86 210.368 61.82C212.808 63.78 214.028 66.44 214.028 69.8C214.028 72.28 213.368 74.34 212.048 75.98C210.768 77.62 209.048 78.76 206.888 79.4ZM191.648 75.92H198.368C200.048 75.92 201.328 75.56 202.208 74.84C203.128 74.08 203.588 72.98 203.588 71.54C203.588 70.1 203.128 69 202.208 68.24C201.328 67.48 200.048 67.1 198.368 67.1H191.648V75.92ZM199.208 92.72C200.928 92.72 202.248 92.34 203.168 91.58C204.128 90.78 204.608 89.64 204.608 88.16C204.608 86.68 204.108 85.52 203.108 84.68C202.148 83.84 200.808 83.42 199.088 83.42H191.648V92.72H199.208ZM237.199 58.88V101H226.939V58.88H237.199ZM275.054 101L260.894 82.4V101H250.634V58.88H260.894V77.36L274.934 58.88H286.994L270.674 79.52L287.594 101H275.054ZM308.73 58.88V101H298.47V58.88H308.73ZM342.085 101.42C338.125 101.42 334.485 100.5 331.165 98.66C327.885 96.82 325.265 94.26 323.305 90.98C321.385 87.66 320.425 83.94 320.425 79.82C320.425 75.7 321.385 72 323.305 68.72C325.265 65.44 327.885 62.88 331.165 61.04C334.485 59.2 338.125 58.28 342.085 58.28C346.045 58.28 349.665 59.2 352.945 61.04C356.265 62.88 358.865 65.44 360.745 68.72C362.665 72 363.625 75.7 363.625 79.82C363.625 83.94 362.665 87.66 360.745 90.98C358.825 94.26 356.225 96.82 352.945 98.66C349.665 100.5 346.045 101.42 342.085 101.42ZM342.085 92.06C345.445 92.06 348.125 90.94 350.125 88.7C352.165 86.46 353.185 83.5 353.185 79.82C353.185 76.1 352.165 73.14 350.125 70.94C348.125 68.7 345.445 67.58 342.085 67.58C338.685 67.58 335.965 68.68 333.925 70.88C331.925 73.08 330.925 76.06 330.925 79.82C330.925 83.54 331.925 86.52 333.925 88.76C335.965 90.96 338.685 92.06 342.085 92.06ZM385.593 93.08H399.033V101H375.333V58.88H385.593V93.08ZM429.847 101.42C425.887 101.42 422.247 100.5 418.927 98.66C415.647 96.82 413.027 94.26 411.067 90.98C409.147 87.66 408.187 83.94 408.187 79.82C408.187 75.7 409.147 72 411.067 68.72C413.027 65.44 415.647 62.88 418.927 61.04C422.247 59.2 425.887 58.28 429.847 58.28C433.807 58.28 437.427 59.2 440.707 61.04C444.027 62.88 446.627 65.44 448.507 68.72C450.427 72 451.387 75.7 451.387 79.82C451.387 83.94 450.427 87.66 448.507 90.98C446.587 94.26 443.987 96.82 440.707 98.66C437.427 100.5 433.807 101.42 429.847 101.42ZM429.847 92.06C433.207 92.06 435.887 90.94 437.887 88.7C439.927 86.46 440.947 83.5 440.947 79.82C440.947 76.1 439.927 73.14 437.887 70.94C435.887 68.7 433.207 67.58 429.847 67.58C426.447 67.58 423.727 68.68 421.687 70.88C419.687 73.08 418.687 76.06 418.687 79.82C418.687 83.54 419.687 86.52 421.687 88.76C423.727 90.96 426.447 92.06 429.847 92.06ZM491.055 72.2C490.295 70.8 489.195 69.74 487.755 69.02C486.355 68.26 484.695 67.88 482.775 67.88C479.455 67.88 476.795 68.98 474.795 71.18C472.795 73.34 471.795 76.24 471.795 79.88C471.795 83.76 472.835 86.8 474.915 89C477.035 91.16 479.935 92.24 483.615 92.24C486.135 92.24 488.255 91.6 489.975 90.32C491.735 89.04 493.015 87.2 493.815 84.8H480.795V77.24H503.115V86.78C502.355 89.34 501.055 91.72 499.215 93.92C497.415 96.12 495.115 97.9 492.315 99.26C489.515 100.62 486.355 101.3 482.835 101.3C478.675 101.3 474.955 100.4 471.675 98.6C468.435 96.76 465.895 94.22 464.055 90.98C462.255 87.74 461.355 84.04 461.355 79.88C461.355 75.72 462.255 72.02 464.055 68.78C465.895 65.5 468.435 62.96 471.675 61.16C474.915 59.32 478.615 58.4 482.775 58.4C487.815 58.4 492.055 59.62 495.495 62.06C498.975 64.5 501.275 67.88 502.395 72.2H491.055ZM550.918 58.88L536.338 87.08V101H526.078V87.08L511.498 58.88H523.138L531.298 76.52L539.398 58.88H550.918Z" fill="white"/>
</g>
<defs>
<clipPath id="clip0">
<rect width="559" height="158" fill="white"/>
</clipPath>
</defs>
</svg>
